<svg xmlns="http://www.w3.org/2000/svg" viewBox="0 0 100 102"><defs><style>.a{fill:none;}</style></defs><title>contents</title><path d="M18.3,32H16.9a6,6,0,1,1,0-12h1.4a6,6,0,0,1,0,12Z"/><path d="M83.7,29.5h-51a3.5,3.5,0,0,1,0-7h51a3.5,3.5,0,0,1,0,7Z"/><path d="M18.3,48H16.9a6,6,0,1,1,0-12h1.4a6,6,0,0,1,0,12Z"/><path d="M83.7,45.5h-51a3.5,3.5,0,0,1,0-7h51a3.5,3.5,0,0,1,0,7Z"/><path d="M18.3,64H16.9a6,6,0,1,1,0-12h1.4a6,6,0,0,1,0,12Z"/><path d="M83.7,61.5h-51a3.5,3.5,0,0,1,0-7h51a3.5,3.5,0,0,1,0,7Z"/><path d="M18.3,80H16.9a6,6,0,1,1,0-12h1.4a6,6,0,0,1,0,12Z"/><path d="M83.7,77.5h-51a3.5,3.5,0,0,1,0-7h51a3.5,3.5,0,0,1,0,7Z"/><rect class="a" width="100" height="102"/></svg>