<svg xmlns="http://www.w3.org/2000/svg" viewBox="0 0 100 101"><defs><style>.a{fill:none;}</style></defs><title>edit</title><path d="M8.82,87.55l4.26-3.12L47.55,33.91C39.39,40.06,8.82,87.55,8.82,87.55Z"/><path d="M56.45,7.82a10,10,0,0,0-2,1.62C49.43,15,47.08,25,47.08,25c-.81-2.4.74-7.42,2.22-11.3C38.93,22.57,29.75,30.63,25,39.6a40.11,40.11,0,0,0-3.85,13.06l-.3-7C5.28,70.1,6.12,88.49,6.12,88.49L0,101l4.48-4.4,3-4.92,2.8-4c25-12.23,42-37.92,42-37.92l-9.58.32C59.24,44.39,73.2,16.52,73.2,16.52,88.28-10.29,60.35,5.21,56.45,7.82ZM12.5,84.38l-1.6-1S39.39,40.06,47.55,33.91Z"/><rect x="57.81" y="61.32" width="17.35" height="6.19"/><rect x="44.8" y="79.88" width="41.2" height="18.57"/><polygon points="85.26 77.42 44.43 77.72 55.66 69.57 73.78 69.57 85.26 77.42"/><rect class="a" width="100" height="101"/></svg>