<svg xmlns="http://www.w3.org/2000/svg" viewBox="0 0 100 100"><defs><style>.a{fill:none;}</style></defs><title>preview</title><polygon class="a" points="100 100 0 100 0 0 100 0 100 100"/><path d="M50,78.85c18.57,0,35.25-10.7,43.21-28.6a2,2,0,0,0,0-.24c-7.82-17.93-24.5-28.86-43-28.86s-35.58,11-43.4,28.79a.77.77,0,0,0,0,.26C14.56,68,31.34,78.85,50,78.85ZM99.9,49.29a3.41,3.41,0,0,1,0,1.64c0,.15,0,.32-.07.47a3.78,3.78,0,0,0-.14.42C91,72.16,70,86.54,50,86.54S9,72.14.31,51.8c0-.09,0-.19-.06-.27a2.13,2.13,0,0,1-.14-.63A3.85,3.85,0,0,1,0,50.08a3.93,3.93,0,0,1,.11-.82c0-.15,0-.31.05-.47a2.46,2.46,0,0,0,.15-.42C9,28,30,13.46,50,13.46S91,28.05,99.69,48.39a2.8,2.8,0,0,1,.06.28A2.51,2.51,0,0,1,99.9,49.29ZM50.27,66.83a16.83,16.83,0,1,0-17.1-17A17.25,17.25,0,0,0,50.27,66.83Zm0,4.8A22,22,0,0,1,28.37,49.88,21.63,21.63,0,1,1,50.25,71.63Zm0-14.42a7.21,7.21,0,1,0-7.46-7.33A7.6,7.6,0,0,0,50.25,57.21ZM50.14,62A12.23,12.23,0,0,1,38,49.93,12,12,0,1,1,50.14,62Z"/></svg>