<svg xmlns="http://www.w3.org/2000/svg" viewBox="0 0 208.78 101"><defs><style>.a,.b{fill:none;}.a{stroke:#000;stroke-miterlimit:10;stroke-width:6px;}</style></defs><title>split_view</title><polygon points="24.9 23.87 0 47.73 24.9 71.58 30.46 66.78 10.36 47.73 30.46 28.67 24.9 23.87"/><polygon points="68.88 23.87 63.32 28.67 83.42 47.73 63.32 66.78 68.88 71.58 93.78 47.73 68.88 23.87"/><polygon points="35.61 76.65 50.79 17.27 58.18 18.8 43 78.19 35.61 76.65"/><path d="M164.78,72.29a41.33,41.33,0,0,0,38-24.93.75.75,0,0,0,0-.2C195.94,31.53,181.27,22,165,22a41.63,41.63,0,0,0-38.19,25.1.55.55,0,0,0,0,.22A41.25,41.25,0,0,0,164.78,72.29Zm43.91-25.76a2.89,2.89,0,0,1,0,1.43,2.9,2.9,0,0,1-.06.41,2.75,2.75,0,0,0-.12.37C200.82,66.47,182.42,79,164.78,79s-36-12.55-43.73-30.28c0-.08,0-.17,0-.24a1.79,1.79,0,0,1-.13-.55,4.31,4.31,0,0,1-.09-.71,4.43,4.43,0,0,1,.09-.72,2.76,2.76,0,0,1,.06-.4,2.24,2.24,0,0,0,.12-.37c7.69-17.73,26.09-30.44,43.73-30.44s36,12.73,43.73,30.46a1.89,1.89,0,0,1,.05.23A1.79,1.79,0,0,1,208.69,46.53ZM165,61.82A14.67,14.67,0,1,0,150,47,15.11,15.11,0,0,0,165,61.82ZM165,66a19.29,19.29,0,0,1-19.26-19A19,19,0,1,1,165,66Zm0-12.58A6.29,6.29,0,1,0,158.44,47,6.65,6.65,0,0,0,165,53.43Zm-.1,4.2a10.72,10.72,0,0,1-10.7-10.54,10.58,10.58,0,1,1,10.7,10.54Z"/><path class="a" d="M107.28,83V11.61"/><rect class="b" x="2.78" width="204" height="101"/></svg>